<svg width="24" height="24" viewBox="0 0 24 24" fill="none" xmlns="http://www.w3.org/2000/svg">
<path d="M18.8235 17.3606C18.8848 17.4258 18.932 17.502 18.9624 17.5846C18.9928 17.6672 19.0059 17.7548 19.0007 17.8422C18.9956 17.9296 18.9725 18.0152 18.9326 18.0941C18.8927 18.173 18.8369 18.2437 18.7684 18.3021C17.8059 19.1229 16.6236 19.674 15.3525 19.8942C14.0814 20.1145 12.7711 19.9953 11.5667 19.55C10.3624 19.1046 9.31097 18.3504 8.52899 17.3709C7.74701 16.3914 7.26499 15.2248 7.13631 14.0004H5.70166C5.51605 14.0004 5.33805 13.9302 5.20681 13.8052C5.07556 13.6802 5.00183 13.5107 5.00183 13.3339C5.00183 13.1571 5.07556 12.9876 5.20681 12.8626C5.33805 12.7376 5.51605 12.6674 5.70166 12.6674H7.10132V11.3343H5.70166C5.51605 11.3343 5.33805 11.2641 5.20681 11.1391C5.07556 11.0141 5.00183 10.8446 5.00183 10.6678C5.00183 10.491 5.07556 10.3215 5.20681 10.1965C5.33805 10.0715 5.51605 10.0013 5.70166 10.0013H7.13631C7.26534 8.77739 7.74745 7.61137 8.52927 6.63231C9.31109 5.65324 10.3621 4.89933 11.566 4.45401C12.7699 4.0087 14.0797 3.88937 15.3504 4.10922C16.6212 4.32908 17.8032 4.87954 18.7657 5.69968C18.9041 5.81768 18.9876 5.9832 18.9979 6.15984C19.0081 6.33648 18.9443 6.50976 18.8204 6.64157C18.6965 6.77337 18.5227 6.85291 18.3373 6.86267C18.1518 6.87244 17.9699 6.81164 17.8315 6.69364C17.0703 6.04585 16.1377 5.60857 15.1345 5.4291C14.1313 5.24963 13.0956 5.33479 12.1396 5.67537C11.1835 6.01596 10.3434 6.59901 9.7101 7.36146C9.0768 8.12392 8.67442 9.03677 8.54647 10.0013H14.0996C14.2852 10.0013 14.4632 10.0715 14.5945 10.1965C14.7257 10.3215 14.7995 10.491 14.7995 10.6678C14.7995 10.8446 14.7257 11.0141 14.5945 11.1391C14.4632 11.2641 14.2852 11.3343 14.0996 11.3343H8.50098V12.6674H12.7C12.8856 12.6674 13.0636 12.7376 13.1948 12.8626C13.3261 12.9876 13.3998 13.1571 13.3998 13.3339C13.3998 13.5107 13.3261 13.6802 13.1948 13.8052C13.0636 13.9302 12.8856 14.0004 12.7 14.0004H8.54647C8.67429 14.965 9.07657 15.878 9.70981 16.6405C10.3431 17.4031 11.1832 17.9863 12.1392 18.327C13.0953 18.6676 14.131 18.7529 15.1343 18.5734C16.1376 18.394 17.0703 17.9567 17.8315 17.3089C17.9 17.25 17.9801 17.2045 18.0672 17.1752C18.1542 17.1458 18.2465 17.1332 18.3388 17.138C18.431 17.1428 18.5213 17.165 18.6045 17.2032C18.6877 17.2414 18.7621 17.2949 18.8235 17.3606Z"/>
</svg>
