<svg width="24" height="24" viewBox="0 0 24 24" fill="none" xmlns="http://www.w3.org/2000/svg">
<path d="M20 12.0002V16.4445C20 16.5918 19.9398 16.7331 19.8326 16.8373C19.7255 16.9415 19.5801 17 19.4286 17H14.8572C14.7057 17 14.5604 16.9415 14.4532 16.8373C14.346 16.7331 14.2858 16.5918 14.2858 16.4445C14.2858 16.2971 14.346 16.1558 14.4532 16.0516C14.5604 15.9475 14.7057 15.8889 14.8572 15.8889H18.0493L12.5716 10.5634L10.1188 12.9487C10.0657 13.0004 10.0027 13.0414 9.93331 13.0693C9.86394 13.0973 9.78958 13.1117 9.71449 13.1117C9.6394 13.1117 9.56504 13.0973 9.49567 13.0693C9.4263 13.0414 9.36328 13.0004 9.31021 12.9487L4.16746 7.94889C4.06024 7.84465 4 7.70327 4 7.55585C4 7.40843 4.06024 7.26705 4.16746 7.1628C4.27468 7.05856 4.4201 7 4.57173 7C4.72337 7 4.86879 7.05856 4.97601 7.1628L9.71449 11.7703L12.1673 9.38496C12.2204 9.33331 12.2834 9.29233 12.3528 9.26437C12.4221 9.23642 12.4965 9.22203 12.5716 9.22203C12.6467 9.22203 12.721 9.23642 12.7904 9.26437C12.8598 9.29233 12.9228 9.33331 12.9759 9.38496L18.8572 15.1035V12.0002C18.8572 11.8528 18.9174 11.7115 19.0245 11.6073C19.1317 11.5031 19.277 11.4446 19.4286 11.4446C19.5801 11.4446 19.7255 11.5031 19.8326 11.6073C19.9398 11.7115 20 11.8528 20 12.0002Z"/>
</svg>
