<svg width="24" height="24" viewBox="0 0 24 24" fill="none" xmlns="http://www.w3.org/2000/svg">
<path d="M19.8713 10.3479L16.8353 6.87504C16.7352 6.75761 16.6101 6.66316 16.4687 6.59837C16.3274 6.53357 16.1733 6.49999 16.0173 6.5H5.06667C4.78377 6.5 4.51246 6.61033 4.31242 6.80673C4.11238 7.00312 4 7.26949 4 7.54723V14.8778C4 15.1556 4.11238 15.4219 4.31242 15.6183C4.51246 15.8147 4.78377 15.9251 5.06667 15.9251H6.2C6.31749 16.3756 6.58437 16.7749 6.95857 17.0601C7.33276 17.3452 7.79298 17.5 8.26667 17.5C8.74036 17.5 9.20058 17.3452 9.57477 17.0601C9.94896 16.7749 10.2158 16.3756 10.3333 15.9251H13.6667C13.7842 16.3756 14.051 16.7749 14.4252 17.0601C14.7994 17.3452 15.2596 17.5 15.7333 17.5C16.207 17.5 16.6672 17.3452 17.0414 17.0601C17.4156 16.7749 17.6825 16.3756 17.8 15.9251H18.9333C19.2162 15.9251 19.4875 15.8147 19.6876 15.6183C19.8876 15.4219 20 15.1556 20 14.8778V10.6889C20 10.5638 19.9543 10.4428 19.8713 10.3479ZM18.306 10.1653H14.6667V7.54723H16.0173L18.306 10.1653ZM9.86667 10.1653V7.54723H13.6V10.1653H9.86667ZM8.8 7.54723V10.1653H5.06667V7.54723H8.8ZM8.26667 16.4487C8.0557 16.4487 7.84947 16.3872 7.67406 16.2722C7.49865 16.1571 7.36193 15.9936 7.2812 15.8022C7.20046 15.6108 7.17934 15.4003 7.2205 15.1971C7.26165 14.994 7.36324 14.8074 7.51242 14.6609C7.6616 14.5145 7.85166 14.4147 8.05857 14.3743C8.26548 14.3339 8.47995 14.3547 8.67486 14.4339C8.86977 14.5132 9.03636 14.6474 9.15357 14.8196C9.27077 14.9918 9.33333 15.1943 9.33333 15.4014C9.33333 15.6792 9.22095 15.9455 9.02091 16.1419C8.82088 16.3383 8.54956 16.4487 8.26667 16.4487ZM15.7333 16.4487C15.5224 16.4487 15.3161 16.3872 15.1407 16.2722C14.9653 16.1571 14.8286 15.9936 14.7479 15.8022C14.6671 15.6108 14.646 15.4003 14.6872 15.1971C14.7283 14.994 14.8299 14.8074 14.9791 14.6609C15.1283 14.5145 15.3183 14.4147 15.5252 14.3743C15.7322 14.3339 15.9466 14.3547 16.1415 14.4339C16.3364 14.5132 16.503 14.6474 16.6202 14.8196C16.7374 14.9918 16.8 15.1943 16.8 15.4014C16.8 15.6792 16.6876 15.9455 16.4876 16.1419C16.2875 16.3383 16.0162 16.4487 15.7333 16.4487ZM17.8 14.8778C17.6825 14.4273 17.4156 14.028 17.0414 13.7428C16.6672 13.4577 16.207 13.3029 15.7333 13.3029C15.2596 13.3029 14.7994 13.4577 14.4252 13.7428C14.051 14.028 13.7842 14.4273 13.6667 14.8778H10.3333C10.2158 14.4273 9.94896 14.028 9.57477 13.7428C9.20058 13.4577 8.74036 13.3029 8.26667 13.3029C7.79298 13.3029 7.33276 13.4577 6.95857 13.7428C6.58437 14.028 6.31749 14.4273 6.2 14.8778H5.06667V11.2125H18.9333V14.8778H17.8Z"/>
</svg>
